<svg xmlns="http://www.w3.org/2000/svg" xmlns:xlink="http://www.w3.org/1999/xlink" width="315.24" height="54.16" viewBox="0.00 0.00 315.24 54.16" preserveAspectRatio="xMidYMid meet" id="graph-diagram"><defs><defs><style type="text/css">@import url('https://fonts.googleapis.com/css?family=Roboto+Condensed:400,700');</style></defs></defs>
<g id="graph0" class="graph" transform="scale(1 1) rotate(0) translate(4 50.16)">

<text text-anchor="middle" x="153.62" y="-27.76" font-family="Roboto Condensed, sans-serif" font-size="16.00">react</text>
<!-- react@18.2.0 -->
<g id="node1" class="node" data-module="react@18.2.0">
<title>react@18.2.0</title>
<path fill="none" stroke="black" d="M58.44,-18.96C58.44,-18.96 6.32,-18.96 6.32,-18.96 3.16,-18.96 0,-15.8 0,-12.64 0,-12.64 0,-6.32 0,-6.32 0,-3.16 3.16,0 6.32,0 6.32,0 58.44,0 58.44,0 61.6,0 64.76,-3.16 64.76,-6.32 64.76,-6.32 64.76,-12.64 64.76,-12.64 64.76,-15.8 61.6,-18.96 58.44,-18.96"></path>
<text text-anchor="middle" x="32.38" y="-6.18" font-family="Roboto Condensed, sans-serif" font-size="11.00">react@18.2.0</text>
</g>
<!-- loose&#45;envify@1.4.0 -->
<g id="node2" class="node" data-module="loose-envify@1.4.0">
<title>loose-envify@1.4.0</title>
<path fill="none" stroke="black" d="M187.31,-18.96C187.31,-18.96 107.08,-18.96 107.08,-18.96 103.92,-18.96 100.76,-15.8 100.76,-12.64 100.76,-12.64 100.76,-6.32 100.76,-6.32 100.76,-3.16 103.92,0 107.08,0 107.08,0 187.31,0 187.31,0 190.47,0 193.63,-3.16 193.63,-6.32 193.63,-6.32 193.63,-12.64 193.63,-12.64 193.63,-15.8 190.47,-18.96 187.31,-18.96"></path>
<text text-anchor="middle" x="147.19" y="-6.18" font-family="Roboto Condensed, sans-serif" font-size="11.00">loose-envify@1.4.0</text>
</g>
<!-- react@18.2.0&#45;&gt;loose&#45;envify@1.4.0 -->
<g id="edge1" class="edge">
<title>react@18.2.0-&gt;loose-envify@1.4.0</title>
<path fill="none" stroke="black" d="M65.1,-9.48C72.72,-9.48 81.08,-9.48 89.45,-9.48"></path>
<polygon fill="black" stroke="black" points="89.39,-12.98 99.39,-9.48 89.39,-5.98 89.39,-12.98"></polygon>
</g>
<!-- js&#45;tokens@4.0.0 -->
<g id="node3" class="node" data-module="js-tokens@4.0.0">
<title>js-tokens@4.0.0</title>
<path fill="none" stroke="black" d="M300.92,-18.96C300.92,-18.96 235.95,-18.96 235.95,-18.96 232.79,-18.96 229.63,-15.8 229.63,-12.64 229.63,-12.64 229.63,-6.32 229.63,-6.32 229.63,-3.16 232.79,0 235.95,0 235.95,0 300.92,0 300.92,0 304.08,0 307.24,-3.16 307.24,-6.32 307.24,-6.32 307.24,-12.64 307.24,-12.64 307.24,-15.8 304.08,-18.96 300.92,-18.96"></path>
<text text-anchor="middle" x="268.43" y="-6.18" font-family="Roboto Condensed, sans-serif" font-size="11.00">js-tokens@4.0.0</text>
</g>
<!-- loose&#45;envify@1.4.0&#45;&gt;js&#45;tokens@4.0.0 -->
<g id="edge2" class="edge">
<title>loose-envify@1.4.0-&gt;js-tokens@4.0.0</title>
<path fill="none" stroke="black" d="M193.95,-9.48C201.99,-9.48 210.38,-9.48 218.5,-9.48"></path>
<polygon fill="black" stroke="black" points="218.35,-12.98 228.35,-9.48 218.35,-5.98 218.35,-12.98"></polygon>
</g>
</g>
<style>:root{color-scheme:light dark;--grey0:#000;--grey10:#1a1a1a;--grey20:#333;--grey30:#4d4d4d;--grey40:#666;--grey50:gray;--grey60:#999;--grey70:#b3b3b3;--grey80:#ccc;--grey90:#e6e6e6;--grey100:#fff;--rad_sm:5px;--rad_lg:10px;--inspector-size:32em;--tabs-height:24pt;--bg-gradient:linear-gradient(to bottom,rgba(255,255,255,.2),transparent 100%);--text:#020303;--text-dim:#999;--bg0:#f1f4f4;--bg1:#bbb;--bg2:#ddd;--tabs-bg:#7e7e7d;--tabs-text:#fff;--highlight:#e65c00;--stroke-L:40%;--stroke-S:100%;--stroke-blue:hsl(180,var(--stroke-S),var(--stroke-L));--stroke-orange:hsl(30,var(--stroke-S),var(--stroke-L));--stroke-green:hsl(120,var(--stroke-S),var(--stroke-L));--stroke-indigo:hsl(240,var(--stroke-S),var(--stroke-L));--stroke-red:hsl(0,var(--stroke-S),var(--stroke-L));--stroke-violet:hsl(300,var(--stroke-S),var(--stroke-L));--stroke-yellow:hsl(60,var(--stroke-S),var(--stroke-L));--bg-L:70%;--bg-S:100%;--bg-dark-L:50%;--bg-dark-S:60%;--bg-blue:hsl(180,var(--bg-S),var(--bg-L));--bg-green:hsl(120,var(--bg-S),var(--bg-L));--bg-indigo:hsl(240,var(--bg-S),var(--bg-L));--bg-orange:hsl(30,var(--bg-S),var(--bg-L));--bg-red:hsl(0,var(--bg-S),var(--bg-L));--bg-violet:hsl(300,var(--bg-S),var(--bg-L));--bg-yellow:hsl(60,var(--bg-S),var(--bg-L));--bg-darkblue:hsl(180,var(--bg-dark-S),var(--bg-dark-L));--bg-darkgreen:hsl(120,var(--bg-dark-S),var(--bg-dark-L));--bg-darkindigo:hsl(240,var(--bg-dark-S),var(--bg-dark-L));--bg-darkorange:hsl(30,var(--bg-dark-S),var(--bg-dark-L));--bg-darkred:hsl(0,var(--bg-dark-S),var(--bg-dark-L));--bg-darkviolet:hsl(300,var(--bg-dark-S),var(--bg-dark-L));--bg-darkyellow:hsl(60,var(--bg-dark-S),var(--bg-dark-L))}@media (prefers-color-scheme:dark){:root{--grey100:#000;--grey90:#1a1a1a;--grey80:#333;--grey70:#4d4d4d;--grey60:#666;--grey50:gray;--grey40:#999;--grey30:#b3b3b3;--grey20:#ccc;--grey10:#e6e6e6;--grey0:#fff;--text:#f3f3f3;--text-dim:#766;--bg0:#262222;--bg1:#696666;--bg2:#333;--stroke-L:60%;--bg-L:30%;--bg-dark-L:40%;--highlight:#ff761a;--inset-shadow-color:black;background-color:#111}}html{font-family:system-ui,-apple-system,BlinkMacSystemFont,Segoe UI,Roboto,Noto Sans,Ubuntu,Cantarell,Helvetica Neue,Helvetica,Arial,sans-serif,Apple Color Emoji,Segoe UI Emoji;font-size:10pt}html,body{margin:0;padding:0}p{line-height:1.5em}h2{border-radius:var(--rad_sm);font-size:14pt}#app{display:-ms-flexbox;display:flex;position:fixed;top:0;bottom:0;left:0;right:0}</style><style>#graph{-webkit-user-select:none;-ms-user-select:none;user-select:none;--warning0:#f6f6e0;--warning1:#d9d9d9;--stub:red;-ms-flex-positive:1;flex-grow:1;height:100vh;position:relative;overflow:auto}#graph.centered{-ms-flex-pack:center;justify-content:center;-ms-flex-align:center;align-items:center;display:-ms-flexbox;display:flex}#graph.graphviz-loading,#graph.graphviz-failed{text-align:center;margin-top:20vh}#graph.graphviz-failed{color:var(--stroke-red)}@media (prefers-color-scheme:dark){#graph{--warning0:#101010;--warning1:#660}}#graph-controls{cursor:default;display:-ms-flexbox;display:flex;position:fixed;bottom:1em;left:1em}#graph-controls button{border:solid 1px var(--bg1);border-radius:var(--rad_sm);background:var(--bg0);color:var(--text);outline:0;margin:0;font-size:1.8em;line-height:1em;display:inline-block}#graph-controls button.selected{background-color:var(--highlight)}svg#graph-diagram{fill:var(--text)}pattern#warning .line0{stroke:var(--warning0)}pattern#warning .line1{stroke:var(--warning1)}g .stub{opacity:.6}g .stub>path{stroke-dasharray:4 4;stroke:var(--stub)}g.node text{fill:var(--text)}g.node path{stroke:var(--text);fill:var(--bg0)}g.node.collapsed,g.node.peer{opacity:.5}g.node.selected>path{stroke-width:3px;stroke:var(--highlight)}g.node.upstream>path{stroke:var(--stroke-blue)}g.node.downstream>path{stroke:var(--stroke-orange)}g.node.unselected{opacity:.35}g.node.warning>path{fill:url(#warning)}g.node *{cursor:pointer}g.edge{--selected-edge-width:2}g.edge>path{stroke:var(--text)}g.edge>polygon{stroke:var(--text);fill:var(--text)}g.edge.upstream>path{stroke:var(--stroke-blue);stroke-width:var(--selected-edge-width)}g.edge.upstream>polygon{stroke:var(--stroke-blue);fill:var(--stroke-blue)}g.edge.downstream>path{stroke:var(--stroke-orange);stroke-width:var(--selected-edge-width)}g.edge.downstream>polygon{stroke:var(--stroke-orange);fill:var(--stroke-orange)}g.edge.unselected{opacity:.35}@media print{#graph-controls{display:none}}</style></svg>