<svg xmlns="http://www.w3.org/2000/svg" xmlns:xlink="http://www.w3.org/1999/xlink" width="957.54" height="685.68" viewBox="0.00 0.00 957.54 685.68" preserveAspectRatio="xMidYMid meet" id="graph-diagram"><defs><defs><style type="text/css">@import url('https://fonts.googleapis.com/css?family=Roboto+Condensed:400,700');</style></defs></defs>
<g id="graph0" class="graph" transform="scale(1 1) rotate(0) translate(4 681.68)">

<text text-anchor="middle" x="474.77" y="-659.28" font-family="Roboto Condensed, sans-serif" font-size="16.00">vue</text>
<!-- vue@3.4.15 -->
<g id="node1" class="node" data-module="vue@3.4.15">
<title>vue@3.4.15</title>
<path fill="none" stroke="black" d="M52.95,-186.96C52.95,-186.96 6.32,-186.96 6.32,-186.96 3.16,-186.96 0,-183.8 0,-180.64 0,-180.64 0,-174.32 0,-174.32 0,-171.16 3.16,-168 6.32,-168 6.32,-168 52.95,-168 52.95,-168 56.11,-168 59.27,-171.16 59.27,-174.32 59.27,-174.32 59.27,-180.64 59.27,-180.64 59.27,-183.8 56.11,-186.96 52.95,-186.96"></path>
<text text-anchor="middle" x="29.64" y="-174.18" font-family="Roboto Condensed, sans-serif" font-size="11.00">vue@3.4.15</text>
</g>
<!-- @vue/compiler&#45;dom@3.4.15 -->
<g id="node2" class="node" data-module="@vue/compiler-dom@3.4.15">
<title>@vue/compiler-dom@3.4.15</title>
<path fill="none" stroke="black" d="M606.13,-292.96C606.13,-292.96 484,-292.96 484,-292.96 480.84,-292.96 477.68,-289.8 477.68,-286.64 477.68,-286.64 477.68,-280.32 477.68,-280.32 477.68,-277.16 480.84,-274 484,-274 484,-274 606.13,-274 606.13,-274 609.29,-274 612.45,-277.16 612.45,-280.32 612.45,-280.32 612.45,-286.64 612.45,-286.64 612.45,-289.8 609.29,-292.96 606.13,-292.96"></path>
<text text-anchor="middle" x="545.06" y="-280.18" font-family="Roboto Condensed, sans-serif" font-size="11.00">@vue/compiler-dom@3.4.15</text>
</g>
<!-- vue@3.4.15&#45;&gt;@vue/compiler&#45;dom@3.4.15 -->
<g id="edge3" class="edge">
<title>vue@3.4.15-&gt;@vue/compiler-dom@3.4.15</title>
<path fill="none" stroke="black" d="M49.35,-187.36C65.64,-195.61 90.1,-207.17 112.48,-214.48 232.5,-253.66 378.82,-271.06 466.55,-278.44"></path>
<polygon fill="black" stroke="black" points="466.23,-282 476.48,-279.33 466.8,-275.03 466.23,-282"></polygon>
</g>
<!-- @vue/compiler&#45;sfc@3.4.15 -->
<g id="node3" class="node" data-module="@vue/compiler-sfc@3.4.15">
<title>@vue/compiler-sfc@3.4.15</title>
<path fill="none" stroke="black" d="M240,-416.96C240,-416.96 124.59,-416.96 124.59,-416.96 121.43,-416.96 118.27,-413.8 118.27,-410.64 118.27,-410.64 118.27,-404.32 118.27,-404.32 118.27,-401.16 121.43,-398 124.59,-398 124.59,-398 240,-398 240,-398 243.16,-398 246.32,-401.16 246.32,-404.32 246.32,-404.32 246.32,-410.64 246.32,-410.64 246.32,-413.8 243.16,-416.96 240,-416.96"></path>
<text text-anchor="middle" x="182.29" y="-404.18" font-family="Roboto Condensed, sans-serif" font-size="11.00">@vue/compiler-sfc@3.4.15</text>
</g>
<!-- vue@3.4.15&#45;&gt;@vue/compiler&#45;sfc@3.4.15 -->
<g id="edge5" class="edge">
<title>vue@3.4.15-&gt;@vue/compiler-sfc@3.4.15</title>
<path fill="none" stroke="black" d="M34.26,-187.35C41.26,-205.92 57.71,-246.98 77.27,-278.48 103.9,-321.37 142.89,-366.06 164.79,-389.94"></path>
<polygon fill="black" stroke="black" points="161.66,-391.8 171.03,-396.76 166.8,-387.04 161.66,-391.8"></polygon>
</g>
<!-- @vue/runtime&#45;dom@3.4.15 -->
<g id="node4" class="node" data-module="@vue/runtime-dom@3.4.15">
<title>@vue/runtime-dom@3.4.15</title>
<path fill="none" stroke="black" d="M412.68,-148.96C412.68,-148.96 295.43,-148.96 295.43,-148.96 292.27,-148.96 289.11,-145.8 289.11,-142.64 289.11,-142.64 289.11,-136.32 289.11,-136.32 289.11,-133.16 292.27,-130 295.43,-130 295.43,-130 412.68,-130 412.68,-130 415.84,-130 419,-133.16 419,-136.32 419,-136.32 419,-142.64 419,-142.64 419,-145.8 415.84,-148.96 412.68,-148.96"></path>
<text text-anchor="middle" x="354.05" y="-136.18" font-family="Roboto Condensed, sans-serif" font-size="11.00">@vue/runtime-dom@3.4.15</text>
</g>
<!-- vue@3.4.15&#45;&gt;@vue/runtime&#45;dom@3.4.15 -->
<g id="edge6" class="edge">
<title>vue@3.4.15-&gt;@vue/runtime-dom@3.4.15</title>
<path fill="none" stroke="black" d="M59.53,-174.07C108.24,-168.33 208.19,-156.55 277.85,-148.34"></path>
<polygon fill="black" stroke="black" points="278.23,-151.7 287.75,-147.06 277.41,-144.75 278.23,-151.7"></polygon>
</g>
<!-- @vue/server&#45;renderer@3.4.15 -->
<g id="node5" class="node" data-module="@vue/server-renderer@3.4.15">
<title>@vue/server-renderer@3.4.15</title>
<path fill="none" stroke="black" d="M245.79,-205.96C245.79,-205.96 118.8,-205.96 118.8,-205.96 115.64,-205.96 112.48,-202.8 112.48,-199.64 112.48,-199.64 112.48,-193.32 112.48,-193.32 112.48,-190.16 115.64,-187 118.8,-187 118.8,-187 245.79,-187 245.79,-187 248.95,-187 252.11,-190.16 252.11,-193.32 252.11,-193.32 252.11,-199.64 252.11,-199.64 252.11,-202.8 248.95,-205.96 245.79,-205.96"></path>
<text text-anchor="middle" x="182.29" y="-193.18" font-family="Roboto Condensed, sans-serif" font-size="11.00">@vue/server-renderer@3.4.15</text>
</g>
<!-- vue@3.4.15&#45;&gt;@vue/server&#45;renderer@3.4.15 -->
<g id="edge4" class="edge">
<title>vue@3.4.15-&gt;@vue/server-renderer@3.4.15</title>
<path fill="none" stroke="black" d="M59.68,-181.14C71.73,-182.66 86.34,-184.51 101.21,-186.38"></path>
<polygon fill="black" stroke="black" points="100.68,-189.97 111.04,-187.75 101.56,-183.02 100.68,-189.97"></polygon>
</g>
<!-- @vue/shared@3.4.15 -->
<g id="node6" class="node" data-module="@vue/shared@3.4.15">
<title>@vue/shared@3.4.15</title>
<path fill="none" stroke="black" d="M940.17,-205.96C940.17,-205.96 851.64,-205.96 851.64,-205.96 848.48,-205.96 845.32,-202.8 845.32,-199.64 845.32,-199.64 845.32,-193.32 845.32,-193.32 845.32,-190.16 848.48,-187 851.64,-187 851.64,-187 940.17,-187 940.17,-187 943.33,-187 946.49,-190.16 946.49,-193.32 946.49,-193.32 946.49,-199.64 946.49,-199.64 946.49,-202.8 943.33,-205.96 940.17,-205.96"></path>
<text text-anchor="middle" x="895.91" y="-193.18" font-family="Roboto Condensed, sans-serif" font-size="11.00">@vue/shared@3.4.15</text>
</g>
<!-- vue@3.4.15&#45;&gt;@vue/shared@3.4.15 -->
<g id="edge1" class="edge">
<title>vue@3.4.15-&gt;@vue/shared@3.4.15</title>
<path fill="none" stroke="black" d="M35.71,-167.63C52.2,-137.17 107.47,-46.48 181.29,-46.48 181.29,-46.48 181.29,-46.48 739.2,-46.48 769.76,-46.48 780.5,-47.59 805.27,-65.48 845.69,-94.66 873.74,-148.01 886.73,-176.8"></path>
<polygon fill="black" stroke="black" points="883.76,-177.76 890.96,-185.53 890.18,-174.97 883.76,-177.76"></polygon>
</g>
<!-- typescript@5.3.3 -->
<g id="node7" class="node" data-module="typescript@5.3.3">
<title>typescript@5.3.3</title>
<path fill="none" stroke="black" d="M216.61,-18.96C216.61,-18.96 147.98,-18.96 147.98,-18.96 144.82,-18.96 141.66,-15.8 141.66,-12.64 141.66,-12.64 141.66,-6.32 141.66,-6.32 141.66,-3.16 144.82,0 147.98,0 147.98,0 216.61,0 216.61,0 219.77,0 222.93,-3.16 222.93,-6.32 222.93,-6.32 222.93,-12.64 222.93,-12.64 222.93,-15.8 219.77,-18.96 216.61,-18.96"></path>
<text text-anchor="middle" x="182.29" y="-6.18" font-family="Roboto Condensed, sans-serif" font-size="11.00">typescript@5.3.3</text>
</g>
<!-- vue@3.4.15&#45;&gt;typescript@5.3.3 -->
<g id="edge2" class="edge">
<title>vue@3.4.15-&gt;typescript@5.3.3</title>
<path fill="none" stroke="#bbbbbb" stroke-dasharray="5,2" d="M30.17,-167.79C29.39,-139.85 31.36,-58.66 77.27,-20.48 91.79,-8.4 111.69,-4.32 130.19,-3.74"></path>
<polygon fill="#bbbbbb" stroke="#bbbbbb" points="130.15,-7.24 140.17,-3.77 130.18,-0.24 130.15,-7.24"></polygon>
<text text-anchor="middle" x="85.88" y="-23.48" font-family="Roboto Condensed, sans-serif" font-size="10.00" fill="#bbbbbb">peer</text>
</g>
<!-- @vue/compiler&#45;dom@3.4.15&#45;&gt;@vue/shared@3.4.15 -->
<g id="edge7" class="edge">
<title>@vue/compiler-dom@3.4.15-&gt;@vue/shared@3.4.15</title>
<path fill="none" stroke="black" d="M612.77,-284.42C670.64,-283.09 755.67,-275.87 824.27,-248.48 844.46,-240.42 864.09,-225.18 877.52,-213.28"></path>
<polygon fill="black" stroke="black" points="879.39,-216.39 884.38,-207.04 874.65,-211.24 879.39,-216.39"></polygon>
</g>
<!-- @vue/compiler&#45;core@3.4.15 -->
<g id="node9" class="node" data-module="@vue/compiler-core@3.4.15">
<title>@vue/compiler-core@3.4.15</title>
<path fill="none" stroke="black" d="M798.95,-417.96C798.95,-417.96 677.45,-417.96 677.45,-417.96 674.29,-417.96 671.13,-414.8 671.13,-411.64 671.13,-411.64 671.13,-405.32 671.13,-405.32 671.13,-402.16 674.29,-399 677.45,-399 677.45,-399 798.95,-399 798.95,-399 802.11,-399 805.27,-402.16 805.27,-405.32 805.27,-405.32 805.27,-411.64 805.27,-411.64 805.27,-414.8 802.11,-417.96 798.95,-417.96"></path>
<text text-anchor="middle" x="738.2" y="-405.18" font-family="Roboto Condensed, sans-serif" font-size="11.00">@vue/compiler-core@3.4.15</text>
</g>
<!-- @vue/compiler&#45;dom@3.4.15&#45;&gt;@vue/compiler&#45;core@3.4.15 -->
<g id="edge8" class="edge">
<title>@vue/compiler-dom@3.4.15-&gt;@vue/compiler-core@3.4.15</title>
<path fill="none" stroke="black" d="M561.06,-293.29C593.99,-314.82 672.85,-366.4 712.93,-392.61"></path>
<polygon fill="black" stroke="black" points="710.72,-396 721.01,-398.54 714.55,-390.14 710.72,-396"></polygon>
</g>
<!-- @vue/compiler&#45;sfc@3.4.15&#45;&gt;@vue/compiler&#45;dom@3.4.15 -->
<g id="edge11" class="edge">
<title>@vue/compiler-sfc@3.4.15-&gt;@vue/compiler-dom@3.4.15</title>
<path fill="none" stroke="black" d="M191.49,-397.56C205.66,-381.14 236.49,-348.5 270.11,-332.48 304.06,-316.3 398.02,-301.68 466.46,-292.7"></path>
<polygon fill="black" stroke="black" points="466.74,-296.07 476.21,-291.31 465.84,-289.12 466.74,-296.07"></polygon>
</g>
<!-- @vue/compiler&#45;sfc@3.4.15&#45;&gt;@vue/shared@3.4.15 -->
<g id="edge9" class="edge">
<title>@vue/compiler-sfc@3.4.15-&gt;@vue/shared@3.4.15</title>
<path fill="none" stroke="black" d="M204.31,-397.56C225.33,-388.02 258.82,-373.85 289.11,-365.48 513.14,-303.58 597.02,-384.68 805.27,-281.48 837.12,-265.7 865.31,-234.72 881.22,-214.84"></path>
<polygon fill="black" stroke="black" points="884.45,-217.38 887.82,-207.33 878.92,-213.09 884.45,-217.38"></polygon>
</g>
<!-- @babel/parser@7.23.9 -->
<g id="node8" class="node" data-module="@babel/parser@7.23.9">
<title>@babel/parser@7.23.9</title>
<path fill="none" stroke="black" d="M943.22,-448.96C943.22,-448.96 848.59,-448.96 848.59,-448.96 845.43,-448.96 842.27,-445.8 842.27,-442.64 842.27,-442.64 842.27,-436.32 842.27,-436.32 842.27,-433.16 845.43,-430 848.59,-430 848.59,-430 943.22,-430 943.22,-430 946.38,-430 949.54,-433.16 949.54,-436.32 949.54,-436.32 949.54,-442.64 949.54,-442.64 949.54,-445.8 946.38,-448.96 943.22,-448.96"></path>
<text text-anchor="middle" x="895.91" y="-436.18" font-family="Roboto Condensed, sans-serif" font-size="11.00">@babel/parser@7.23.9</text>
</g>
<!-- @vue/compiler&#45;sfc@3.4.15&#45;&gt;@babel/parser@7.23.9 -->
<g id="edge13" class="edge">
<title>@vue/compiler-sfc@3.4.15-&gt;@babel/parser@7.23.9</title>
<path fill="none" stroke="black" d="M202.84,-417.43C233.85,-432.28 296.58,-458.48 353.05,-458.48 353.05,-458.48 353.05,-458.48 739.2,-458.48 769.49,-458.48 802.86,-454.89 830.91,-450.84"></path>
<polygon fill="black" stroke="black" points="831.41,-454.15 840.78,-449.2 830.37,-447.23 831.41,-454.15"></polygon>
</g>
<!-- @vue/compiler&#45;sfc@3.4.15&#45;&gt;@vue/compiler&#45;core@3.4.15 -->
<g id="edge14" class="edge">
<title>@vue/compiler-sfc@3.4.15-&gt;@vue/compiler-core@3.4.15</title>
<path fill="none" stroke="black" d="M246.56,-407.59C348.76,-407.78 549.82,-408.14 660.18,-408.34"></path>
<polygon fill="black" stroke="black" points="659.89,-411.84 669.9,-408.36 659.9,-404.84 659.89,-411.84"></polygon>
</g>
<!-- @vue/compiler&#45;ssr@3.4.15 -->
<g id="node10" class="node" data-module="@vue/compiler-ssr@3.4.15">
<title>@vue/compiler-ssr@3.4.15</title>
<path fill="none" stroke="black" d="M411.46,-242.96C411.46,-242.96 296.65,-242.96 296.65,-242.96 293.49,-242.96 290.33,-239.8 290.33,-236.64 290.33,-236.64 290.33,-230.32 290.33,-230.32 290.33,-227.16 293.49,-224 296.65,-224 296.65,-224 411.46,-224 411.46,-224 414.62,-224 417.78,-227.16 417.78,-230.32 417.78,-230.32 417.78,-236.64 417.78,-236.64 417.78,-239.8 414.62,-242.96 411.46,-242.96"></path>
<text text-anchor="middle" x="354.05" y="-230.18" font-family="Roboto Condensed, sans-serif" font-size="11.00">@vue/compiler-ssr@3.4.15</text>
</g>
<!-- @vue/compiler&#45;sfc@3.4.15&#45;&gt;@vue/compiler&#45;ssr@3.4.15 -->
<g id="edge15" class="edge">
<title>@vue/compiler-sfc@3.4.15-&gt;@vue/compiler-ssr@3.4.15</title>
<path fill="none" stroke="black" d="M190.66,-397.53C205.01,-378.43 238.1,-335.66 270.11,-303.48 289.8,-283.68 314.48,-263.35 331.78,-249.74"></path>
<polygon fill="black" stroke="black" points="333.35,-252.17 339.09,-243.27 329.05,-246.65 333.35,-252.17"></polygon>
</g>
<!-- estree&#45;walker@2.0.2 -->
<g id="node13" class="node" data-module="estree-walker@2.0.2">
<title>estree-walker@2.0.2</title>
<path fill="none" stroke="black" d="M938.15,-498.96C938.15,-498.96 853.66,-498.96 853.66,-498.96 850.5,-498.96 847.34,-495.8 847.34,-492.64 847.34,-492.64 847.34,-486.32 847.34,-486.32 847.34,-483.16 850.5,-480 853.66,-480 853.66,-480 938.15,-480 938.15,-480 941.31,-480 944.47,-483.16 944.47,-486.32 944.47,-486.32 944.47,-492.64 944.47,-492.64 944.47,-495.8 941.31,-498.96 938.15,-498.96"></path>
<text text-anchor="middle" x="895.91" y="-486.18" font-family="Roboto Condensed, sans-serif" font-size="11.00">estree-walker@2.0.2</text>
</g>
<!-- @vue/compiler&#45;sfc@3.4.15&#45;&gt;estree&#45;walker@2.0.2 -->
<g id="edge10" class="edge">
<title>@vue/compiler-sfc@3.4.15-&gt;estree-walker@2.0.2</title>
<path fill="none" stroke="black" d="M192.6,-417.19C216.68,-441.2 283.99,-501.48 353.05,-501.48 353.05,-501.48 353.05,-501.48 653.13,-501.48 715.84,-501.48 787.59,-497.4 836.53,-494"></path>
<polygon fill="black" stroke="black" points="836.5,-497.44 846.23,-493.24 836.01,-490.46 836.5,-497.44"></polygon>
</g>
<!-- magic&#45;string@0.30.5 -->
<g id="node14" class="node" data-module="magic-string@0.30.5">
<title>magic-string@0.30.5</title>
<path fill="none" stroke="black" d="M397.23,-392.96C397.23,-392.96 310.88,-392.96 310.88,-392.96 307.72,-392.96 304.56,-389.8 304.56,-386.64 304.56,-386.64 304.56,-380.32 304.56,-380.32 304.56,-377.16 307.72,-374 310.88,-374 310.88,-374 397.23,-374 397.23,-374 400.39,-374 403.55,-377.16 403.55,-380.32 403.55,-380.32 403.55,-386.64 403.55,-386.64 403.55,-389.8 400.39,-392.96 397.23,-392.96"></path>
<text text-anchor="middle" x="354.05" y="-380.18" font-family="Roboto Condensed, sans-serif" font-size="11.00">magic-string@0.30.5</text>
</g>
<!-- @vue/compiler&#45;sfc@3.4.15&#45;&gt;magic&#45;string@0.30.5 -->
<g id="edge17" class="edge">
<title>@vue/compiler-sfc@3.4.15-&gt;magic-string@0.30.5</title>
<path fill="none" stroke="black" d="M246.51,-398.54C261.83,-396.38 278.16,-394.07 293.32,-391.93"></path>
<polygon fill="black" stroke="black" points="293.7,-395.26 303.12,-390.4 292.72,-388.33 293.7,-395.26"></polygon>
</g>
<!-- postcss@8.4.33 -->
<g id="node15" class="node" data-module="postcss@8.4.33">
<title>postcss@8.4.33</title>
<path fill="none" stroke="black" d="M385.32,-573.96C385.32,-573.96 322.79,-573.96 322.79,-573.96 319.63,-573.96 316.47,-570.8 316.47,-567.64 316.47,-567.64 316.47,-561.32 316.47,-561.32 316.47,-558.16 319.63,-555 322.79,-555 322.79,-555 385.32,-555 385.32,-555 388.48,-555 391.64,-558.16 391.64,-561.32 391.64,-561.32 391.64,-567.64 391.64,-567.64 391.64,-570.8 388.48,-573.96 385.32,-573.96"></path>
<text text-anchor="middle" x="354.05" y="-561.18" font-family="Roboto Condensed, sans-serif" font-size="11.00">postcss@8.4.33</text>
</g>
<!-- @vue/compiler&#45;sfc@3.4.15&#45;&gt;postcss@8.4.33 -->
<g id="edge16" class="edge">
<title>@vue/compiler-sfc@3.4.15-&gt;postcss@8.4.33</title>
<path fill="none" stroke="black" d="M189.49,-417.41C202.51,-437.7 234.46,-484.61 270.11,-515.48 285.71,-528.99 305.54,-540.86 321.9,-549.53"></path>
<polygon fill="black" stroke="black" points="320.08,-553.04 330.57,-554.5 323.28,-546.82 320.08,-553.04"></polygon>
</g>
<!-- source&#45;map&#45;js@1.0.2 -->
<g id="node16" class="node" data-module="source-map-js@1.0.2">
<title>source-map-js@1.0.2</title>
<path fill="none" stroke="black" d="M939.69,-548.96C939.69,-548.96 852.13,-548.96 852.13,-548.96 848.97,-548.96 845.81,-545.8 845.81,-542.64 845.81,-542.64 845.81,-536.32 845.81,-536.32 845.81,-533.16 848.97,-530 852.13,-530 852.13,-530 939.69,-530 939.69,-530 942.85,-530 946.01,-533.16 946.01,-536.32 946.01,-536.32 946.01,-542.64 946.01,-542.64 946.01,-545.8 942.85,-548.96 939.69,-548.96"></path>
<text text-anchor="middle" x="895.91" y="-536.18" font-family="Roboto Condensed, sans-serif" font-size="11.00">source-map-js@1.0.2</text>
</g>
<!-- @vue/compiler&#45;sfc@3.4.15&#45;&gt;source&#45;map&#45;js@1.0.2 -->
<g id="edge12" class="edge">
<title>@vue/compiler-sfc@3.4.15-&gt;source-map-js@1.0.2</title>
<path fill="none" stroke="black" d="M185.07,-417.31C193.88,-462.77 237.26,-650.48 353.05,-650.48 353.05,-650.48 353.05,-650.48 739.2,-650.48 802.08,-650.48 857.15,-589.72 881.55,-558.11"></path>
<polygon fill="black" stroke="black" points="884.92,-560.44 888.11,-550.33 879.32,-556.24 884.92,-560.44"></polygon>
</g>
<!-- @vue/runtime&#45;dom@3.4.15&#45;&gt;@vue/shared@3.4.15 -->
<g id="edge18" class="edge">
<title>@vue/runtime-dom@3.4.15-&gt;@vue/shared@3.4.15</title>
<path fill="none" stroke="black" d="M419.36,-144.54C529.05,-153.3 747.87,-171.44 824.27,-182.48 828.66,-183.11 833.18,-183.84 837.72,-184.62"></path>
<polygon fill="black" stroke="black" points="836.83,-188.2 847.29,-186.53 838.07,-181.31 836.83,-188.2"></polygon>
</g>
<!-- @vue/runtime&#45;core@3.4.15 -->
<g id="node11" class="node" data-module="@vue/runtime-core@3.4.15">
<title>@vue/runtime-core@3.4.15</title>
<path fill="none" stroke="black" d="M603.38,-129.96C603.38,-129.96 486.75,-129.96 486.75,-129.96 483.59,-129.96 480.43,-126.8 480.43,-123.64 480.43,-123.64 480.43,-117.32 480.43,-117.32 480.43,-114.16 483.59,-111 486.75,-111 486.75,-111 603.38,-111 603.38,-111 606.54,-111 609.7,-114.16 609.7,-117.32 609.7,-117.32 609.7,-123.64 609.7,-123.64 609.7,-126.8 606.54,-129.96 603.38,-129.96"></path>
<text text-anchor="middle" x="545.06" y="-117.18" font-family="Roboto Condensed, sans-serif" font-size="11.00">@vue/runtime-core@3.4.15</text>
</g>
<!-- @vue/runtime&#45;dom@3.4.15&#45;&gt;@vue/runtime&#45;core@3.4.15 -->
<g id="edge20" class="edge">
<title>@vue/runtime-dom@3.4.15-&gt;@vue/runtime-core@3.4.15</title>
<path fill="none" stroke="black" d="M419.31,-133.02C435.37,-131.41 452.74,-129.66 469.27,-128"></path>
<polygon fill="black" stroke="black" points="469.39,-131.4 478.99,-126.92 468.69,-124.44 469.39,-131.4"></polygon>
</g>
<!-- csstype@3.1.3 -->
<g id="node12" class="node" data-module="csstype@3.1.3">
<title>csstype@3.1.3</title>
<path fill="none" stroke="black" d="M573.88,-92.96C573.88,-92.96 516.25,-92.96 516.25,-92.96 513.09,-92.96 509.93,-89.8 509.93,-86.64 509.93,-86.64 509.93,-80.32 509.93,-80.32 509.93,-77.16 513.09,-74 516.25,-74 516.25,-74 573.88,-74 573.88,-74 577.04,-74 580.2,-77.16 580.2,-80.32 580.2,-80.32 580.2,-86.64 580.2,-86.64 580.2,-89.8 577.04,-92.96 573.88,-92.96"></path>
<text text-anchor="middle" x="545.06" y="-80.18" font-family="Roboto Condensed, sans-serif" font-size="11.00">csstype@3.1.3</text>
</g>
<!-- @vue/runtime&#45;dom@3.4.15&#45;&gt;csstype@3.1.3 -->
<g id="edge19" class="edge">
<title>@vue/runtime-dom@3.4.15-&gt;csstype@3.1.3</title>
<path fill="none" stroke="black" d="M379.22,-129.55C399.47,-121.48 429.29,-110.22 456,-102.48 469.75,-98.5 484.93,-94.93 498.75,-92"></path>
<polygon fill="black" stroke="black" points="499.41,-95.23 508.49,-89.78 497.99,-88.38 499.41,-95.23"></polygon>
</g>
<!-- @vue/server&#45;renderer@3.4.15&#45;&gt;@vue/shared@3.4.15 -->
<g id="edge21" class="edge">
<title>@vue/server-renderer@3.4.15-&gt;@vue/shared@3.4.15</title>
<path fill="none" stroke="black" d="M252.26,-196.48C283.1,-196.48 319.9,-196.48 353.05,-196.48 353.05,-196.48 353.05,-196.48 739.2,-196.48 770.6,-196.48 805.57,-196.48 834.39,-196.48"></path>
<polygon fill="black" stroke="black" points="834.12,-199.98 844.12,-196.48 834.12,-192.98 834.12,-199.98"></polygon>
</g>
<!-- @vue/server&#45;renderer@3.4.15&#45;&gt;@vue/compiler&#45;ssr@3.4.15 -->
<g id="edge22" class="edge">
<title>@vue/server-renderer@3.4.15-&gt;@vue/compiler-ssr@3.4.15</title>
<path fill="none" stroke="black" d="M228.79,-206.4C249.72,-210.96 274.76,-216.41 296.85,-221.23"></path>
<polygon fill="black" stroke="black" points="295.92,-224.83 306.44,-223.54 297.41,-217.99 295.92,-224.83"></polygon>
</g>
<!-- @vue/compiler&#45;core@3.4.15&#45;&gt;@vue/shared@3.4.15 -->
<g id="edge26" class="edge">
<title>@vue/compiler-core@3.4.15-&gt;@vue/shared@3.4.15</title>
<path fill="none" stroke="black" d="M757.17,-398.51C775.93,-387.37 805.2,-367.8 824.27,-344.48 857.04,-304.42 878.89,-246.63 888.8,-216.49"></path>
<polygon fill="black" stroke="black" points="892.32,-217.97 892.01,-207.38 885.65,-215.85 892.32,-217.97"></polygon>
</g>
<!-- @vue/compiler&#45;core@3.4.15&#45;&gt;@babel/parser@7.23.9 -->
<g id="edge23" class="edge">
<title>@vue/compiler-core@3.4.15-&gt;@babel/parser@7.23.9</title>
<path fill="none" stroke="black" d="M802.94,-418.45C810.15,-419.73 817.38,-421.08 824.27,-422.48 831.17,-423.87 838.41,-425.47 845.52,-427.11"></path>
<polygon fill="black" stroke="black" points="844.26,-430.64 854.79,-429.53 845.86,-423.83 844.26,-430.64"></polygon>
</g>
<!-- @vue/compiler&#45;core@3.4.15&#45;&gt;estree&#45;walker@2.0.2 -->
<g id="edge24" class="edge">
<title>@vue/compiler-core@3.4.15-&gt;estree-walker@2.0.2</title>
<path fill="none" stroke="black" d="M758.29,-418.41C785.41,-432.52 835.25,-458.45 866.65,-474.78"></path>
<polygon fill="black" stroke="black" points="864.66,-478.21 875.15,-479.72 867.89,-472 864.66,-478.21"></polygon>
</g>
<!-- @vue/compiler&#45;core@3.4.15&#45;&gt;source&#45;map&#45;js@1.0.2 -->
<g id="edge25" class="edge">
<title>@vue/compiler-core@3.4.15-&gt;source-map-js@1.0.2</title>
<path fill="none" stroke="black" d="M747.96,-418.21C765.01,-436.84 804.32,-478.28 842.27,-507.48 850.07,-513.48 859.06,-519.3 867.38,-524.29"></path>
<polygon fill="black" stroke="black" points="865.33,-527.73 875.73,-529.74 868.85,-521.68 865.33,-527.73"></polygon>
</g>
<!-- entities@4.5.0 -->
<g id="node19" class="node" data-module="entities@4.5.0">
<title>entities@4.5.0</title>
<path fill="none" stroke="black" d="M924.42,-392.96C924.42,-392.96 867.4,-392.96 867.4,-392.96 864.24,-392.96 861.08,-389.8 861.08,-386.64 861.08,-386.64 861.08,-380.32 861.08,-380.32 861.08,-377.16 864.24,-374 867.4,-374 867.4,-374 924.42,-374 924.42,-374 927.58,-374 930.74,-377.16 930.74,-380.32 930.74,-380.32 930.74,-386.64 930.74,-386.64 930.74,-389.8 927.58,-392.96 924.42,-392.96"></path>
<text text-anchor="middle" x="895.91" y="-380.18" font-family="Roboto Condensed, sans-serif" font-size="11.00">entities@4.5.0</text>
</g>
<!-- @vue/compiler&#45;core@3.4.15&#45;&gt;entities@4.5.0 -->
<g id="edge27" class="edge">
<title>@vue/compiler-core@3.4.15-&gt;entities@4.5.0</title>
<path fill="none" stroke="black" d="M801.19,-398.53C817.57,-395.9 834.92,-393.11 850.19,-390.66"></path>
<polygon fill="black" stroke="black" points="850.58,-393.98 859.89,-388.94 849.47,-387.07 850.58,-393.98"></polygon>
</g>
<!-- @vue/compiler&#45;ssr@3.4.15&#45;&gt;@vue/compiler&#45;dom@3.4.15 -->
<g id="edge29" class="edge">
<title>@vue/compiler-ssr@3.4.15-&gt;@vue/compiler-dom@3.4.15</title>
<path fill="none" stroke="black" d="M392.4,-243.36C422.07,-251.21 463.79,-262.24 495.96,-270.76"></path>
<polygon fill="black" stroke="black" points="494.91,-274.36 505.48,-273.54 496.7,-267.6 494.91,-274.36"></polygon>
</g>
<!-- @vue/compiler&#45;ssr@3.4.15&#45;&gt;@vue/shared@3.4.15 -->
<g id="edge28" class="edge">
<title>@vue/compiler-ssr@3.4.15-&gt;@vue/shared@3.4.15</title>
<path fill="none" stroke="black" d="M417.92,-233.32C508.18,-232.43 679.58,-228.27 824.27,-210.48 829.08,-209.89 834.05,-209.16 839.02,-208.34"></path>
<polygon fill="black" stroke="black" points="839.61,-211.61 848.85,-206.43 838.39,-204.72 839.61,-211.61"></polygon>
</g>
<!-- @vue/runtime&#45;core@3.4.15&#45;&gt;@vue/shared@3.4.15 -->
<g id="edge30" class="edge">
<title>@vue/runtime-core@3.4.15-&gt;@vue/shared@3.4.15</title>
<path fill="none" stroke="black" d="M610.1,-116.34C667.92,-114.82 754.41,-118.16 824.27,-144.48 844.61,-152.14 864.23,-167.43 877.61,-179.45"></path>
<polygon fill="black" stroke="black" points="874.74,-181.5 884.44,-185.77 879.52,-176.38 874.74,-181.5"></polygon>
</g>
<!-- @vue/reactivity@3.4.15 -->
<g id="node18" class="node" data-module="@vue/reactivity@3.4.15">
<title>@vue/reactivity@3.4.15</title>
<path fill="none" stroke="black" d="M788.88,-92.96C788.88,-92.96 687.53,-92.96 687.53,-92.96 684.37,-92.96 681.21,-89.8 681.21,-86.64 681.21,-86.64 681.21,-80.32 681.21,-80.32 681.21,-77.16 684.37,-74 687.53,-74 687.53,-74 788.88,-74 788.88,-74 792.04,-74 795.2,-77.16 795.2,-80.32 795.2,-80.32 795.2,-86.64 795.2,-86.64 795.2,-89.8 792.04,-92.96 788.88,-92.96"></path>
<text text-anchor="middle" x="738.2" y="-80.18" font-family="Roboto Condensed, sans-serif" font-size="11.00">@vue/reactivity@3.4.15</text>
</g>
<!-- @vue/runtime&#45;core@3.4.15&#45;&gt;@vue/reactivity@3.4.15 -->
<g id="edge31" class="edge">
<title>@vue/runtime-core@3.4.15-&gt;@vue/reactivity@3.4.15</title>
<path fill="none" stroke="black" d="M597.54,-110.52C621.53,-105.87 650.27,-100.31 675.43,-95.44"></path>
<polygon fill="black" stroke="black" points="675.82,-98.73 684.97,-93.4 674.49,-91.86 675.82,-98.73"></polygon>
</g>
<!-- @jridgewell/sourcemap&#45;codec@1.4.15 -->
<g id="node17" class="node" data-module="@jridgewell/sourcemap-codec@1.4.15">
<title>@jridgewell/sourcemap-codec@1.4.15</title>
<path fill="none" stroke="black" d="M627.81,-392.96C627.81,-392.96 462.32,-392.96 462.32,-392.96 459.16,-392.96 456,-389.8 456,-386.64 456,-386.64 456,-380.32 456,-380.32 456,-377.16 459.16,-374 462.32,-374 462.32,-374 627.81,-374 627.81,-374 630.97,-374 634.13,-377.16 634.13,-380.32 634.13,-380.32 634.13,-386.64 634.13,-386.64 634.13,-389.8 630.97,-392.96 627.81,-392.96"></path>
<text text-anchor="middle" x="545.06" y="-380.18" font-family="Roboto Condensed, sans-serif" font-size="11.00">@jridgewell/sourcemap-codec@1.4.15</text>
</g>
<!-- magic&#45;string@0.30.5&#45;&gt;@jridgewell/sourcemap&#45;codec@1.4.15 -->
<g id="edge32" class="edge">
<title>magic-string@0.30.5-&gt;@jridgewell/sourcemap-codec@1.4.15</title>
<path fill="none" stroke="black" d="M403.73,-383.48C416.37,-383.48 430.45,-383.48 444.68,-383.48"></path>
<polygon fill="black" stroke="black" points="444.57,-386.98 454.57,-383.48 444.57,-379.98 444.57,-386.98"></polygon>
</g>
<!-- postcss@8.4.33&#45;&gt;source&#45;map&#45;js@1.0.2 -->
<g id="edge34" class="edge">
<title>postcss@8.4.33-&gt;source-map-js@1.0.2</title>
<path fill="none" stroke="black" d="M391.96,-562.14C411.07,-560.97 434.78,-559.57 456,-558.48 591.22,-551.53 749.97,-545.09 834.59,-541.78"></path>
<polygon fill="black" stroke="black" points="834.67,-545.24 844.53,-541.36 834.4,-538.25 834.67,-545.24"></polygon>
</g>
<!-- nanoid@3.3.7 -->
<g id="node20" class="node" data-module="nanoid@3.3.7">
<title>nanoid@3.3.7</title>
<path fill="none" stroke="black" d="M572.66,-622.96C572.66,-622.96 517.47,-622.96 517.47,-622.96 514.31,-622.96 511.15,-619.8 511.15,-616.64 511.15,-616.64 511.15,-610.32 511.15,-610.32 511.15,-607.16 514.31,-604 517.47,-604 517.47,-604 572.66,-604 572.66,-604 575.82,-604 578.98,-607.16 578.98,-610.32 578.98,-610.32 578.98,-616.64 578.98,-616.64 578.98,-619.8 575.82,-622.96 572.66,-622.96"></path>
<text text-anchor="middle" x="545.06" y="-610.18" font-family="Roboto Condensed, sans-serif" font-size="11.00">nanoid@3.3.7</text>
</g>
<!-- postcss@8.4.33&#45;&gt;nanoid@3.3.7 -->
<g id="edge35" class="edge">
<title>postcss@8.4.33-&gt;nanoid@3.3.7</title>
<path fill="none" stroke="black" d="M386.26,-574.42C406.12,-580.59 432.44,-588.45 456,-594.48 470.37,-598.16 486.18,-601.72 500.38,-604.74"></path>
<polygon fill="black" stroke="black" points="499.38,-608.32 509.89,-606.95 500.82,-601.47 499.38,-608.32"></polygon>
</g>
<!-- picocolors@1.0.0 -->
<g id="node21" class="node" data-module="picocolors@1.0.0">
<title>picocolors@1.0.0</title>
<path fill="none" stroke="black" d="M580.6,-585.96C580.6,-585.96 509.53,-585.96 509.53,-585.96 506.37,-585.96 503.21,-582.8 503.21,-579.64 503.21,-579.64 503.21,-573.32 503.21,-573.32 503.21,-570.16 506.37,-567 509.53,-567 509.53,-567 580.6,-567 580.6,-567 583.76,-567 586.92,-570.16 586.92,-573.32 586.92,-573.32 586.92,-579.64 586.92,-579.64 586.92,-582.8 583.76,-585.96 580.6,-585.96"></path>
<text text-anchor="middle" x="545.06" y="-573.18" font-family="Roboto Condensed, sans-serif" font-size="11.00">picocolors@1.0.0</text>
</g>
<!-- postcss@8.4.33&#45;&gt;picocolors@1.0.0 -->
<g id="edge33" class="edge">
<title>postcss@8.4.33-&gt;picocolors@1.0.0</title>
<path fill="none" stroke="black" d="M391.95,-566.82C420.49,-568.63 460.37,-571.17 492.13,-573.18"></path>
<polygon fill="black" stroke="black" points="491.8,-576.73 502,-573.87 492.24,-569.75 491.8,-576.73"></polygon>
</g>
<!-- @vue/reactivity@3.4.15&#45;&gt;@vue/shared@3.4.15 -->
<g id="edge36" class="edge">
<title>@vue/reactivity@3.4.15-&gt;@vue/shared@3.4.15</title>
<path fill="none" stroke="black" d="M795.42,-93.18C805.53,-96.42 815.6,-100.74 824.27,-106.48 851.5,-124.5 872.88,-156.48 884.7,-177.06"></path>
<polygon fill="black" stroke="black" points="882.09,-178.59 889.99,-185.66 888.22,-175.21 882.09,-178.59"></polygon>
</g>
</g>
<style>:root{color-scheme:light dark;--grey0:#000;--grey10:#1a1a1a;--grey20:#333;--grey30:#4d4d4d;--grey40:#666;--grey50:gray;--grey60:#999;--grey70:#b3b3b3;--grey80:#ccc;--grey90:#e6e6e6;--grey100:#fff;--rad_sm:5px;--rad_lg:10px;--inspector-size:32em;--tabs-height:24pt;--bg-gradient:linear-gradient(to bottom,rgba(255,255,255,.2),transparent 100%);--text:#020303;--text-dim:#999;--bg0:#f1f4f4;--bg1:#bbb;--bg2:#ddd;--tabs-bg:#7e7e7d;--tabs-text:#fff;--highlight:#e65c00;--stroke-L:40%;--stroke-S:100%;--stroke-blue:hsl(180,var(--stroke-S),var(--stroke-L));--stroke-orange:hsl(30,var(--stroke-S),var(--stroke-L));--stroke-green:hsl(120,var(--stroke-S),var(--stroke-L));--stroke-indigo:hsl(240,var(--stroke-S),var(--stroke-L));--stroke-red:hsl(0,var(--stroke-S),var(--stroke-L));--stroke-violet:hsl(300,var(--stroke-S),var(--stroke-L));--stroke-yellow:hsl(60,var(--stroke-S),var(--stroke-L));--bg-L:70%;--bg-S:100%;--bg-dark-L:50%;--bg-dark-S:60%;--bg-blue:hsl(180,var(--bg-S),var(--bg-L));--bg-green:hsl(120,var(--bg-S),var(--bg-L));--bg-indigo:hsl(240,var(--bg-S),var(--bg-L));--bg-orange:hsl(30,var(--bg-S),var(--bg-L));--bg-red:hsl(0,var(--bg-S),var(--bg-L));--bg-violet:hsl(300,var(--bg-S),var(--bg-L));--bg-yellow:hsl(60,var(--bg-S),var(--bg-L));--bg-darkblue:hsl(180,var(--bg-dark-S),var(--bg-dark-L));--bg-darkgreen:hsl(120,var(--bg-dark-S),var(--bg-dark-L));--bg-darkindigo:hsl(240,var(--bg-dark-S),var(--bg-dark-L));--bg-darkorange:hsl(30,var(--bg-dark-S),var(--bg-dark-L));--bg-darkred:hsl(0,var(--bg-dark-S),var(--bg-dark-L));--bg-darkviolet:hsl(300,var(--bg-dark-S),var(--bg-dark-L));--bg-darkyellow:hsl(60,var(--bg-dark-S),var(--bg-dark-L))}@media (prefers-color-scheme:dark){:root{--grey100:#000;--grey90:#1a1a1a;--grey80:#333;--grey70:#4d4d4d;--grey60:#666;--grey50:gray;--grey40:#999;--grey30:#b3b3b3;--grey20:#ccc;--grey10:#e6e6e6;--grey0:#fff;--text:#f3f3f3;--text-dim:#766;--bg0:#262222;--bg1:#696666;--bg2:#333;--stroke-L:60%;--bg-L:30%;--bg-dark-L:40%;--highlight:#ff761a;--inset-shadow-color:black;background-color:#111}}html{font-family:system-ui,-apple-system,BlinkMacSystemFont,Segoe UI,Roboto,Noto Sans,Ubuntu,Cantarell,Helvetica Neue,Helvetica,Arial,sans-serif,Apple Color Emoji,Segoe UI Emoji;font-size:10pt}html,body{margin:0;padding:0}p{line-height:1.5em}h2{border-radius:var(--rad_sm);font-size:14pt}#app{display:-ms-flexbox;display:flex;position:fixed;top:0;bottom:0;left:0;right:0}</style><style>#graph{-webkit-user-select:none;-ms-user-select:none;user-select:none;--warning0:#f6f6e0;--warning1:#d9d9d9;--stub:red;-ms-flex-positive:1;flex-grow:1;height:100vh;position:relative;overflow:auto}#graph.centered{-ms-flex-pack:center;justify-content:center;-ms-flex-align:center;align-items:center;display:-ms-flexbox;display:flex}#graph.graphviz-loading,#graph.graphviz-failed{text-align:center;margin-top:20vh}#graph.graphviz-failed{color:var(--stroke-red)}@media (prefers-color-scheme:dark){#graph{--warning0:#101010;--warning1:#660}}#graph-controls{cursor:default;display:-ms-flexbox;display:flex;position:fixed;bottom:1em;left:1em}#graph-controls button{border:solid 1px var(--bg1);border-radius:var(--rad_sm);background:var(--bg0);color:var(--text);outline:0;margin:0;font-size:1.8em;line-height:1em;display:inline-block}#graph-controls button.selected{background-color:var(--highlight)}svg#graph-diagram{fill:var(--text)}pattern#warning .line0{stroke:var(--warning0)}pattern#warning .line1{stroke:var(--warning1)}g .stub{opacity:.6}g .stub>path{stroke-dasharray:4 4;stroke:var(--stub)}g.node text{fill:var(--text)}g.node path{stroke:var(--text);fill:var(--bg0)}g.node.collapsed,g.node.peer{opacity:.5}g.node.selected>path{stroke-width:3px;stroke:var(--highlight)}g.node.upstream>path{stroke:var(--stroke-blue)}g.node.downstream>path{stroke:var(--stroke-orange)}g.node.unselected{opacity:.35}g.node.warning>path{fill:url(#warning)}g.node *{cursor:pointer}g.edge{--selected-edge-width:2}g.edge>path{stroke:var(--text)}g.edge>polygon{stroke:var(--text);fill:var(--text)}g.edge.upstream>path{stroke:var(--stroke-blue);stroke-width:var(--selected-edge-width)}g.edge.upstream>polygon{stroke:var(--stroke-blue);fill:var(--stroke-blue)}g.edge.downstream>path{stroke:var(--stroke-orange);stroke-width:var(--selected-edge-width)}g.edge.downstream>polygon{stroke:var(--stroke-orange);fill:var(--stroke-orange)}g.edge.unselected{opacity:.35}@media print{#graph-controls{display:none}}</style></svg>